# MagicaVoxel @ Ephtracy

# group
o 

# material
mtllib DieTile.mtl
usemtl palette

# normals
vn -1 0 0
vn 1 0 0
vn 0 0 1
vn 0 0 -1
vn 0 -1 0
vn 0 1 0

# texcoords
vt 0.0214844 0.5
vt 0.841797 0.5

# verts
v 0 2 0
v 0 2 -1.6
v 0 2.3 0
v 0 2.3 -1.6
v 0 2.4 0
v 0 2.4 -1.6
v 1 2.2 -0.2
v 1 2.2 -0.3
v 1 2.3 -0.2
v 1 2.3 -0.3
v 0.9 2.2 -0.2
v 0.9 2.2 -0.3
v 0.9 2.3 -0.2
v 0.9 2.3 -0.3
v 1.6 2 0
v 1.6 2 -1.6
v 1.6 2.3 0
v 1.6 2.3 -1.6
v 1.6 2.4 0
v 1.6 2.4 -1.6
v 0 2 0
v 0 2.3 0
v 0 2.4 0
v 1.6 2 0
v 1.6 2.3 0
v 1.6 2.4 0
v 0.9 2.2 -0.3
v 0.9 2.3 -0.3
v 1 2.2 -0.3
v 1 2.3 -0.3
v 0.9 2.2 -0.2
v 0.9 2.3 -0.2
v 1 2.2 -0.2
v 1 2.3 -0.2
v 0 2 -1.6
v 0 2.3 -1.6
v 0 2.4 -1.6
v 1.6 2 -1.6
v 1.6 2.3 -1.6
v 1.6 2.4 -1.6
v 0 2 0
v 1.6 2 0
v 0 2 -1.6
v 1.6 2 -1.6
v 0.9 2.3 -0.2
v 1 2.3 -0.2
v 0.9 2.3 -0.3
v 1 2.3 -0.3
v 0.9 2.2 -0.2
v 1 2.2 -0.2
v 0.9 2.2 -0.3
v 1 2.2 -0.3
v 0 2.4 0
v 1.6 2.4 0
v 0.1 2.4 -0.1
v 1.5 2.4 -0.1
v 0.2 2.4 -0.2
v 1.4 2.4 -0.2
v 0.2 2.4 -1.4
v 1.4 2.4 -1.4
v 0.1 2.4 -1.5
v 1.5 2.4 -1.5
v 0 2.4 -1.6
v 1.6 2.4 -1.6

# faces
f 3/2/1 2/2/1 1/2/1
f 4/2/1 2/2/1 3/2/1
f 5/1/1 4/1/1 3/1/1
f 6/1/1 4/1/1 5/1/1
f 9/2/1 8/2/1 7/2/1
f 10/2/1 8/2/1 9/2/1
f 11/2/2 12/2/2 13/2/2
f 13/2/2 12/2/2 14/2/2
f 15/2/2 16/2/2 17/2/2
f 17/2/2 16/2/2 18/2/2
f 17/1/2 18/1/2 19/1/2
f 19/1/2 18/1/2 20/1/2
f 24/2/3 22/2/3 21/2/3
f 25/1/3 23/1/3 22/1/3
f 25/2/3 22/2/3 24/2/3
f 26/1/3 23/1/3 25/1/3
f 29/2/3 28/2/3 27/2/3
f 30/2/3 28/2/3 29/2/3
f 31/2/4 32/2/4 33/2/4
f 33/2/4 32/2/4 34/2/4
f 35/2/4 36/2/4 38/2/4
f 36/1/4 37/1/4 39/1/4
f 38/2/4 36/2/4 39/2/4
f 39/1/4 37/1/4 40/1/4
f 43/2/5 42/2/5 41/2/5
f 44/2/5 42/2/5 43/2/5
f 47/1/5 46/1/5 45/1/5
f 48/1/5 46/1/5 47/1/5
f 49/2/6 50/2/6 51/2/6
f 51/2/6 50/2/6 52/2/6
f 53/1/6 54/1/6 55/1/6
f 55/1/6 54/1/6 56/1/6
f 55/2/6 56/2/6 57/2/6
f 57/2/6 56/2/6 58/2/6
f 55/2/6 57/2/6 59/2/6
f 57/1/6 58/1/6 59/1/6
f 58/2/6 56/2/6 60/2/6
f 59/1/6 58/1/6 60/1/6
f 53/1/6 55/1/6 61/1/6
f 55/2/6 59/2/6 61/2/6
f 59/2/6 60/2/6 61/2/6
f 60/2/6 56/2/6 62/2/6
f 61/2/6 60/2/6 62/2/6
f 56/1/6 54/1/6 62/1/6
f 53/1/6 61/1/6 63/1/6
f 61/1/6 62/1/6 63/1/6
f 62/1/6 54/1/6 64/1/6
f 63/1/6 62/1/6 64/1/6
