# MagicaVoxel @ Ephtracy

# group
o 

# material
mtllib SpikesTile.mtl
usemtl palette

# normals
vn -1 0 0
vn 1 0 0
vn 0 0 1
vn 0 0 -1
vn 0 -1 0
vn 0 1 0

# texcoords
vt 0.705078 0.5
vt 0.939453 0.5

# verts
v 0 2 0
v 0 2 -0.1
v 0 2 -0.4
v 0 2.5 -0.1
v 0 2.5 -0.4
v 0 2.7 -0.1
v 0 2.7 -0.4
v 0 3.2 0
v 0 3.2 -0.1
v 0 3.2 -0.4
v 0.1 2.1 -0.4
v 0.1 2.1 -0.8
v 0.1 2.4 -0.4
v 0.1 2.4 -0.8
v 0.1 2.8 -0.4
v 0.1 2.8 -0.8
v 0.1 3.1 -0.4
v 0.1 3.1 -0.8
v 0.2 2.2 -0.8
v 0.2 2.2 -1.2
v 0.2 2.3 -0.8
v 0.2 2.3 -1.2
v 0.2 2.9 -0.8
v 0.2 2.9 -1.2
v 0.2 3 -0.8
v 0.2 3 -1.2
v 0.7 2 -0.1
v 0.7 2 -0.4
v 0.7 2.5 -0.1
v 0.7 2.5 -0.4
v 0.7 2.7 -0.1
v 0.7 2.7 -0.4
v 0.7 3.2 -0.1
v 0.7 3.2 -0.4
v 0.8 2.1 -0.4
v 0.8 2.1 -0.8
v 0.8 2.4 -0.4
v 0.8 2.4 -0.8
v 0.8 2.8 -0.4
v 0.8 2.8 -0.8
v 0.8 3.1 -0.4
v 0.8 3.1 -0.8
v 0.9 2.2 -0.8
v 0.9 2.2 -1.2
v 0.9 2.3 -0.8
v 0.9 2.3 -1.2
v 0.9 2.9 -0.8
v 0.9 2.9 -1.2
v 0.9 3 -0.8
v 0.9 3 -1.2
v 0.3 2.2 -0.8
v 0.3 2.2 -1.2
v 0.3 2.3 -0.8
v 0.3 2.3 -1.2
v 0.3 2.9 -0.8
v 0.3 2.9 -1.2
v 0.3 3 -0.8
v 0.3 3 -1.2
v 0.4 2.1 -0.4
v 0.4 2.1 -0.8
v 0.4 2.4 -0.4
v 0.4 2.4 -0.8
v 0.4 2.8 -0.4
v 0.4 2.8 -0.8
v 0.4 3.1 -0.4
v 0.4 3.1 -0.8
v 0.5 2 -0.1
v 0.5 2 -0.4
v 0.5 2.5 -0.1
v 0.5 2.5 -0.4
v 0.5 2.7 -0.1
v 0.5 2.7 -0.4
v 0.5 3.2 -0.1
v 0.5 3.2 -0.4
v 1 2.2 -0.8
v 1 2.2 -1.2
v 1 2.3 -0.8
v 1 2.3 -1.2
v 1 2.9 -0.8
v 1 2.9 -1.2
v 1 3 -0.8
v 1 3 -1.2
v 1.1 2.1 -0.4
v 1.1 2.1 -0.8
v 1.1 2.4 -0.4
v 1.1 2.4 -0.8
v 1.1 2.8 -0.4
v 1.1 2.8 -0.8
v 1.1 3.1 -0.4
v 1.1 3.1 -0.8
v 1.2 2 0
v 1.2 2 -0.1
v 1.2 2 -0.4
v 1.2 2.5 -0.1
v 1.2 2.5 -0.4
v 1.2 2.7 -0.1
v 1.2 2.7 -0.4
v 1.2 3.2 0
v 1.2 3.2 -0.1
v 1.2 3.2 -0.4
v 0 2 0
v 0 3.2 0
v 1.2 2 0
v 1.2 3.2 0
v 0 2.5 -0.1
v 0 2.7 -0.1
v 0.5 2 -0.1
v 0.5 2.5 -0.1
v 0.5 2.7 -0.1
v 0.5 3.2 -0.1
v 0.7 2 -0.1
v 0.7 2.5 -0.1
v 0.7 2.7 -0.1
v 0.7 3.2 -0.1
v 1.2 2.5 -0.1
v 1.2 2.7 -0.1
v 0 2 -0.4
v 0 2.5 -0.4
v 0 2.7 -0.4
v 0 3.2 -0.4
v 0.1 2.1 -0.4
v 0.1 2.4 -0.4
v 0.1 2.8 -0.4
v 0.1 3.1 -0.4
v 0.4 2.1 -0.4
v 0.4 2.4 -0.4
v 0.4 2.8 -0.4
v 0.4 3.1 -0.4
v 0.5 2 -0.4
v 0.5 2.5 -0.4
v 0.5 2.7 -0.4
v 0.5 3.2 -0.4
v 0.7 2 -0.4
v 0.7 2.5 -0.4
v 0.7 2.7 -0.4
v 0.7 3.2 -0.4
v 0.8 2.1 -0.4
v 0.8 2.4 -0.4
v 0.8 2.8 -0.4
v 0.8 3.1 -0.4
v 1.1 2.1 -0.4
v 1.1 2.4 -0.4
v 1.1 2.8 -0.4
v 1.1 3.1 -0.4
v 1.2 2 -0.4
v 1.2 2.5 -0.4
v 1.2 2.7 -0.4
v 1.2 3.2 -0.4
v 0.1 2.1 -0.8
v 0.1 2.4 -0.8
v 0.1 2.8 -0.8
v 0.1 3.1 -0.8
v 0.2 2.2 -0.8
v 0.2 2.3 -0.8
v 0.2 2.9 -0.8
v 0.2 3 -0.8
v 0.3 2.2 -0.8
v 0.3 2.3 -0.8
v 0.3 2.9 -0.8
v 0.3 3 -0.8
v 0.4 2.1 -0.8
v 0.4 2.4 -0.8
v 0.4 2.8 -0.8
v 0.4 3.1 -0.8
v 0.8 2.1 -0.8
v 0.8 2.4 -0.8
v 0.8 2.8 -0.8
v 0.8 3.1 -0.8
v 0.9 2.2 -0.8
v 0.9 2.3 -0.8
v 0.9 2.9 -0.8
v 0.9 3 -0.8
v 1 2.2 -0.8
v 1 2.3 -0.8
v 1 2.9 -0.8
v 1 3 -0.8
v 1.1 2.1 -0.8
v 1.1 2.4 -0.8
v 1.1 2.8 -0.8
v 1.1 3.1 -0.8
v 0.2 2.2 -1.2
v 0.2 2.3 -1.2
v 0.2 2.9 -1.2
v 0.2 3 -1.2
v 0.3 2.2 -1.2
v 0.3 2.3 -1.2
v 0.3 2.9 -1.2
v 0.3 3 -1.2
v 0.9 2.2 -1.2
v 0.9 2.3 -1.2
v 0.9 2.9 -1.2
v 0.9 3 -1.2
v 1 2.2 -1.2
v 1 2.3 -1.2
v 1 2.9 -1.2
v 1 3 -1.2
v 0 2 0
v 1.2 2 0
v 0 2 -0.1
v 0.5 2 -0.1
v 0.7 2 -0.1
v 1.2 2 -0.1
v 0 2 -0.4
v 0.5 2 -0.4
v 0.7 2 -0.4
v 1.2 2 -0.4
v 0.1 2.1 -0.4
v 0.4 2.1 -0.4
v 0.8 2.1 -0.4
v 1.1 2.1 -0.4
v 0.1 2.1 -0.8
v 0.4 2.1 -0.8
v 0.8 2.1 -0.8
v 1.1 2.1 -0.8
v 0.2 2.2 -0.8
v 0.3 2.2 -0.8
v 0.9 2.2 -0.8
v 1 2.2 -0.8
v 0.2 2.2 -1.2
v 0.3 2.2 -1.2
v 0.9 2.2 -1.2
v 1 2.2 -1.2
v 0 2.7 -0.1
v 0.5 2.7 -0.1
v 0.7 2.7 -0.1
v 1.2 2.7 -0.1
v 0 2.7 -0.4
v 0.5 2.7 -0.4
v 0.7 2.7 -0.4
v 1.2 2.7 -0.4
v 0.1 2.8 -0.4
v 0.4 2.8 -0.4
v 0.8 2.8 -0.4
v 1.1 2.8 -0.4
v 0.1 2.8 -0.8
v 0.4 2.8 -0.8
v 0.8 2.8 -0.8
v 1.1 2.8 -0.8
v 0.2 2.9 -0.8
v 0.3 2.9 -0.8
v 0.9 2.9 -0.8
v 1 2.9 -0.8
v 0.2 2.9 -1.2
v 0.3 2.9 -1.2
v 0.9 2.9 -1.2
v 1 2.9 -1.2
v 0.2 2.3 -0.8
v 0.3 2.3 -0.8
v 0.9 2.3 -0.8
v 1 2.3 -0.8
v 0.2 2.3 -1.2
v 0.3 2.3 -1.2
v 0.9 2.3 -1.2
v 1 2.3 -1.2
v 0.1 2.4 -0.4
v 0.4 2.4 -0.4
v 0.8 2.4 -0.4
v 1.1 2.4 -0.4
v 0.1 2.4 -0.8
v 0.4 2.4 -0.8
v 0.8 2.4 -0.8
v 1.1 2.4 -0.8
v 0 2.5 -0.1
v 0.5 2.5 -0.1
v 0.7 2.5 -0.1
v 1.2 2.5 -0.1
v 0 2.5 -0.4
v 0.5 2.5 -0.4
v 0.7 2.5 -0.4
v 1.2 2.5 -0.4
v 0.2 3 -0.8
v 0.3 3 -0.8
v 0.9 3 -0.8
v 1 3 -0.8
v 0.2 3 -1.2
v 0.3 3 -1.2
v 0.9 3 -1.2
v 1 3 -1.2
v 0.1 3.1 -0.4
v 0.4 3.1 -0.4
v 0.8 3.1 -0.4
v 1.1 3.1 -0.4
v 0.1 3.1 -0.8
v 0.4 3.1 -0.8
v 0.8 3.1 -0.8
v 1.1 3.1 -0.8
v 0 3.2 0
v 1.2 3.2 0
v 0 3.2 -0.1
v 0.5 3.2 -0.1
v 0.7 3.2 -0.1
v 1.2 3.2 -0.1
v 0 3.2 -0.4
v 0.5 3.2 -0.4
v 0.7 3.2 -0.4
v 1.2 3.2 -0.4

# faces
f 4/2/1 2/2/1 1/2/1
f 4/1/1 3/1/1 2/1/1
f 5/1/1 3/1/1 4/1/1
f 6/2/1 4/2/1 1/2/1
f 8/2/1 6/2/1 1/2/1
f 9/1/1 7/1/1 6/1/1
f 9/2/1 6/2/1 8/2/1
f 10/1/1 7/1/1 9/1/1
f 13/2/1 12/2/1 11/2/1
f 14/2/1 12/2/1 13/2/1
f 17/2/1 16/2/1 15/2/1
f 18/2/1 16/2/1 17/2/1
f 21/1/1 20/1/1 19/1/1
f 22/1/1 20/1/1 21/1/1
f 25/1/1 24/1/1 23/1/1
f 26/1/1 24/1/1 25/1/1
f 29/1/1 28/1/1 27/1/1
f 30/1/1 28/1/1 29/1/1
f 33/1/1 32/1/1 31/1/1
f 34/1/1 32/1/1 33/1/1
f 37/2/1 36/2/1 35/2/1
f 38/2/1 36/2/1 37/2/1
f 41/2/1 40/2/1 39/2/1
f 42/2/1 40/2/1 41/2/1
f 45/1/1 44/1/1 43/1/1
f 46/1/1 44/1/1 45/1/1
f 49/1/1 48/1/1 47/1/1
f 50/1/1 48/1/1 49/1/1
f 51/1/2 52/1/2 53/1/2
f 53/1/2 52/1/2 54/1/2
f 55/1/2 56/1/2 57/1/2
f 57/1/2 56/1/2 58/1/2
f 59/2/2 60/2/2 61/2/2
f 61/2/2 60/2/2 62/2/2
f 63/2/2 64/2/2 65/2/2
f 65/2/2 64/2/2 66/2/2
f 67/1/2 68/1/2 69/1/2
f 69/1/2 68/1/2 70/1/2
f 71/1/2 72/1/2 73/1/2
f 73/1/2 72/1/2 74/1/2
f 75/1/2 76/1/2 77/1/2
f 77/1/2 76/1/2 78/1/2
f 79/1/2 80/1/2 81/1/2
f 81/1/2 80/1/2 82/1/2
f 83/2/2 84/2/2 85/2/2
f 85/2/2 84/2/2 86/2/2
f 87/2/2 88/2/2 89/2/2
f 89/2/2 88/2/2 90/2/2
f 91/2/2 92/2/2 94/2/2
f 92/1/2 93/1/2 94/1/2
f 94/1/2 93/1/2 95/1/2
f 91/2/2 94/2/2 96/2/2
f 91/2/2 96/2/2 98/2/2
f 96/1/2 97/1/2 99/1/2
f 98/2/2 96/2/2 99/2/2
f 99/1/2 97/1/2 100/1/2
f 103/2/3 102/2/3 101/2/3
f 104/2/3 102/2/3 103/2/3
f 105/2/4 106/2/4 108/2/4
f 108/2/4 106/2/4 109/2/4
f 107/2/4 108/2/4 111/2/4
f 109/2/4 110/2/4 111/2/4
f 108/2/4 109/2/4 111/2/4
f 111/2/4 110/2/4 112/2/4
f 112/2/4 110/2/4 113/2/4
f 113/2/4 110/2/4 114/2/4
f 112/2/4 113/2/4 115/2/4
f 115/2/4 113/2/4 116/2/4
f 117/1/4 118/1/4 121/1/4
f 121/1/4 118/1/4 122/1/4
f 119/1/4 120/1/4 123/1/4
f 123/1/4 120/1/4 124/1/4
f 117/1/4 121/1/4 125/1/4
f 122/1/4 118/1/4 126/1/4
f 119/1/4 123/1/4 127/1/4
f 124/1/4 120/1/4 128/1/4
f 117/1/4 125/1/4 129/1/4
f 125/1/4 126/1/4 129/1/4
f 126/1/4 118/1/4 130/1/4
f 129/1/4 126/1/4 130/1/4
f 127/1/4 128/1/4 131/1/4
f 119/1/4 127/1/4 131/1/4
f 128/1/4 120/1/4 132/1/4
f 131/1/4 128/1/4 132/1/4
f 133/1/4 134/1/4 137/1/4
f 137/1/4 134/1/4 138/1/4
f 135/1/4 136/1/4 139/1/4
f 139/1/4 136/1/4 140/1/4
f 133/1/4 137/1/4 141/1/4
f 138/1/4 134/1/4 142/1/4
f 135/1/4 139/1/4 143/1/4
f 140/1/4 136/1/4 144/1/4
f 133/1/4 141/1/4 145/1/4
f 141/1/4 142/1/4 145/1/4
f 142/1/4 134/1/4 146/1/4
f 145/1/4 142/1/4 146/1/4
f 143/1/4 144/1/4 147/1/4
f 135/1/4 143/1/4 147/1/4
f 144/1/4 136/1/4 148/1/4
f 147/1/4 144/1/4 148/1/4
f 149/2/4 150/2/4 153/2/4
f 153/2/4 150/2/4 154/2/4
f 151/2/4 152/2/4 155/2/4
f 155/2/4 152/2/4 156/2/4
f 149/2/4 153/2/4 157/2/4
f 154/2/4 150/2/4 158/2/4
f 151/2/4 155/2/4 159/2/4
f 156/2/4 152/2/4 160/2/4
f 149/2/4 157/2/4 161/2/4
f 157/2/4 158/2/4 161/2/4
f 158/2/4 150/2/4 162/2/4
f 161/2/4 158/2/4 162/2/4
f 159/2/4 160/2/4 163/2/4
f 151/2/4 159/2/4 163/2/4
f 160/2/4 152/2/4 164/2/4
f 163/2/4 160/2/4 164/2/4
f 165/2/4 166/2/4 169/2/4
f 169/2/4 166/2/4 170/2/4
f 167/2/4 168/2/4 171/2/4
f 171/2/4 168/2/4 172/2/4
f 165/2/4 169/2/4 173/2/4
f 170/2/4 166/2/4 174/2/4
f 167/2/4 171/2/4 175/2/4
f 172/2/4 168/2/4 176/2/4
f 165/2/4 173/2/4 177/2/4
f 173/2/4 174/2/4 177/2/4
f 174/2/4 166/2/4 178/2/4
f 177/2/4 174/2/4 178/2/4
f 175/2/4 176/2/4 179/2/4
f 167/2/4 175/2/4 179/2/4
f 176/2/4 168/2/4 180/2/4
f 179/2/4 176/2/4 180/2/4
f 181/1/4 182/1/4 185/1/4
f 185/1/4 182/1/4 186/1/4
f 183/1/4 184/1/4 187/1/4
f 187/1/4 184/1/4 188/1/4
f 189/1/4 190/1/4 193/1/4
f 193/1/4 190/1/4 194/1/4
f 191/1/4 192/1/4 195/1/4
f 195/1/4 192/1/4 196/1/4
f 199/2/5 198/2/5 197/2/5
f 200/2/5 198/2/5 199/2/5
f 201/2/5 198/2/5 200/2/5
f 202/2/5 198/2/5 201/2/5
f 203/1/5 200/1/5 199/1/5
f 204/1/5 200/1/5 203/1/5
f 205/1/5 202/1/5 201/1/5
f 206/1/5 202/1/5 205/1/5
f 211/2/5 208/2/5 207/2/5
f 212/2/5 208/2/5 211/2/5
f 213/2/5 210/2/5 209/2/5
f 214/2/5 210/2/5 213/2/5
f 219/1/5 216/1/5 215/1/5
f 220/1/5 216/1/5 219/1/5
f 221/1/5 218/1/5 217/1/5
f 222/1/5 218/1/5 221/1/5
f 227/1/5 224/1/5 223/1/5
f 228/1/5 224/1/5 227/1/5
f 229/1/5 226/1/5 225/1/5
f 230/1/5 226/1/5 229/1/5
f 235/2/5 232/2/5 231/2/5
f 236/2/5 232/2/5 235/2/5
f 237/2/5 234/2/5 233/2/5
f 238/2/5 234/2/5 237/2/5
f 243/1/5 240/1/5 239/1/5
f 244/1/5 240/1/5 243/1/5
f 245/1/5 242/1/5 241/1/5
f 246/1/5 242/1/5 245/1/5
f 247/1/6 248/1/6 251/1/6
f 251/1/6 248/1/6 252/1/6
f 249/1/6 250/1/6 253/1/6
f 253/1/6 250/1/6 254/1/6
f 255/2/6 256/2/6 259/2/6
f 259/2/6 256/2/6 260/2/6
f 257/2/6 258/2/6 261/2/6
f 261/2/6 258/2/6 262/2/6
f 263/1/6 264/1/6 267/1/6
f 267/1/6 264/1/6 268/1/6
f 265/1/6 266/1/6 269/1/6
f 269/1/6 266/1/6 270/1/6
f 271/1/6 272/1/6 275/1/6
f 275/1/6 272/1/6 276/1/6
f 273/1/6 274/1/6 277/1/6
f 277/1/6 274/1/6 278/1/6
f 279/2/6 280/2/6 283/2/6
f 283/2/6 280/2/6 284/2/6
f 281/2/6 282/2/6 285/2/6
f 285/2/6 282/2/6 286/2/6
f 287/2/6 288/2/6 289/2/6
f 289/2/6 288/2/6 290/2/6
f 290/2/6 288/2/6 291/2/6
f 291/2/6 288/2/6 292/2/6
f 289/1/6 290/1/6 293/1/6
f 293/1/6 290/1/6 294/1/6
f 291/1/6 292/1/6 295/1/6
f 295/1/6 292/1/6 296/1/6
